ply
format ascii 1.0
element vertex 50
property float x
property float y
property float z
property uchar red
property uchar green
property uchar blue
element edge 6
property int vertex1
property int vertex2
end_header
2.3091 1.3559 2.9587 100 100 255
2.9897 4.1082 2.3552 100 100 255
1.7090 -4.1441 1.4788 100 100 255
1.4378 3.3307 0.4534 100 100 255
-4.3172 0.3942 -3.5846 100 100 255
3.4946 -3.1794 1.7146 100 100 255
-0.5540 -4.9419 -0.2201 100 100 255
4.6334 4.0098 3.4897 100 100 255
3.9605 -4.8349 0.8800 100 100 255
0.4752 -4.6838 0.9815 100 100 255
1.7709 -4.7840 1.9524 100 100 255
0.4054 -1.0781 -1.9998 100 100 255
2.7256 -3.9771 -3.1544 100 100 255
4.4752 -1.0401 -1.8150 100 100 255
3.5904 2.3148 3.0568 100 100 255
-4.3074 -0.3958 2.5772 100 100 255
-1.5007 2.2674 1.3834 100 100 255
-2.1558 1.5021 0.7845 100 100 255
-0.3151 -0.0254 -1.1521 100 100 255
0.7484 2.5709 -3.0578 100 100 255
0.6687 3.4941 4.2813 100 100 255
3.0716 -2.9059 -3.9715 100 100 255
-0.2603 2.7551 4.4864 100 100 255
1.1426 3.6786 -0.9349 100 100 255
-4.3941 -1.4099 -4.2251 100 100 255
-4.5293 -0.6346 -1.2170 100 100 255
0.0944 2.9141 -0.2237 100 100 255
-4.1766 -4.8261 -2.4314 100 100 255
-3.5219 -1.7933 -1.0351 100 100 255
-4.6967 3.2975 2.0939 100 100 255
-3.9545 -0.4796 -3.3854 100 100 255
-1.4707 -2.5569 2.0374 100 100 255
2.6944 3.8006 -2.7719 100 100 255
0.1681 -0.4771 4.5332 100 100 255
1.6636 2.9475 0.8798 100 100 255
-2.4975 -0.7694 -4.4928 100 100 255
-2.1173 -3.9518 -1.8136 100 100 255
-2.2328 -4.0816 0.2201 100 100 255
-0.2152 4.7986 -4.5357 100 100 255
-4.6314 1.8752 0.5064 100 100 255
-0.2572 -0.4627 -0.4426 100 100 255
3.3189 1.7605 2.2822 100 100 255
1.2727 -4.2524 3.7676 100 100 255
3.8607 -2.0086 -1.2542 100 100 255
-0.3145 2.6342 2.4311 100 100 255
-2.5097 2.3900 3.7114 100 100 255
-0.2606 1.6246 -2.0585 100 100 255
2.2666 -4.9607 -1.2981 100 100 255
2.7147 -1.0795 2.7783 100 100 255
-4.6991 -3.3202 4.8627 100 100 255
2 3
28 29
34 35
36 37
41 42
45 46
