ply
format ascii 1.0
element vertex 64
property float x
property float y
property float z
property uchar red
property uchar green
property uchar blue
element edge 63
property int vertex1
property int vertex2
end_header
0.176212534308433533 1.59684383869171143 0.690259397029876709 255 0 0
0.741183817386627197 0.389899194240570068 0.375236719846725464 255 0 0
0.0813335254788398743 1.23570108413696289 1.75602149963378906 255 0 0
0.646304786205291748 0.0287565197795629501 1.44099891185760498 255 0 0
0.230909392237663269 2 -0.790121316909790039 255 0 0
0.79588085412979126 0.793055593967437744 -1.10514414310455322 255 0 0
0.136030480265617371 1.63885760307312012 0.275640815496444702 255 0 0
0.701001763343811035 0.431913018226623535 -0.0393819548189640045 255 0 0
-1.48789060115814209 1.0613400936126709 0.445717126131057739 255 0 0
-0.922919154167175293 -0.145604580640792847 0.130694359540939331 255 0 0
-1.58276951313018799 0.700197398662567139 1.51147913932800293 255 0 0
-1.01779830455780029 -0.506747186183929443 1.19645655155181885 255 0 0
-1.43319356441497803 1.46449637413024902 -1.03466355800628662 255 0 0
-0.868222236633300781 0.257551789283752441 -1.3496863842010498 255 0 0
-1.52807259559631348 1.10335373878479004 0.0310984160751104355 255 0 0
-0.96310126781463623 -0.103590920567512512 -0.283924251794815063 255 0 0
0.899520277976989746 1.33822381496429443 0.658368706703186035 255 0 0
1.46449160575866699 0.131279125809669495 0.343346089124679565 255 0 0
0.804641306400299072 0.977080941200256348 1.72413086891174316 255 0 0
1.36961269378662109 -0.229863658547401428 1.40910828113555908 255 0 0
0.954217195510864258 1.74138033390045166 -0.822011888027191162 255 0 0
1.5191885232925415 0.534435451030731201 -1.13703465461730957 255 0 0
0.859338223934173584 1.38023734092712402 0.243750184774398804 255 0 0
1.42430961132049561 0.173292726278305054 -0.0712725743651390076 255 0 0
-0.76458275318145752 0.80271989107131958 0.413826435804367065 255 0 0
-0.199611440300941467 -0.404224693775177002 0.0988037139177322388 255 0 0
-0.859461724758148193 0.441577136516571045 1.47958850860595703 255 0 0
-0.29449048638343811 -0.765367507934570312 1.1645658016204834 255 0 0
-0.709885776042938232 1.20587635040283203 -1.06655430793762207 255 0 0
-0.14491446316242218 -0.00106834073085337877 -1.38157689571380615 255 0 0
-0.804764747619628906 0.844733595848083496 -0.00079221092164516449 255 0 0
-0.239793464541435242 -0.362211138010025024 -0.315814852714538574 255 0 0
0.239793464541435242 0.362211138010025024 0.315814852714538574 255 0 0
0.804764747619628906 -0.844733595848083496 0.000792204751633107662 255 0 0
0.144914492964744568 0.00106833456084132195 1.38157689571380615 255 0 0
0.709885776042938232 -1.20587635040283203 1.06655430793762207 255 0 0
0.29449048638343811 0.765367507934570312 -1.1645658016204834 255 0 0
0.859461724758148193 -0.441577136516571045 -1.47958850860595703 255 0 0
0.199611470103263855 0.404224693775177002 -0.0988037139177322388 255 0 0
0.76458275318145752 -0.80271989107131958 -0.413826435804367065 255 0 0
-1.42430961132049561 -0.173292726278305054 0.0712725743651390076 255 0 0
-0.859338223934173584 -1.38023734092712402 -0.243750184774398804 255 0 0
-1.5191885232925415 -0.534435451030731201 1.13703465461730957 255 0 0
-0.954217195510864258 -1.74138033390045166 0.822011888027191162 255 0 0
-1.36961269378662109 0.229863658547401428 -1.40910828113555908 255 0 0
-0.804641306400299072 -0.977080941200256348 -1.72413086891174316 255 0 0
-1.46449160575866699 -0.131279125809669495 -0.343346089124679565 255 0 0
-0.899520277976989746 -1.33822381496429443 -0.658368706703186035 255 0 0
0.96310126781463623 0.103590920567512512 0.283924251794815063 255 0 0
1.52807259559631348 -1.10335373878479004 -0.0310984216630458832 255 0 0
0.868222236633300781 -0.257551789283752441 1.3496863842010498 255 0 0
1.43319356441497803 -1.46449637413024902 1.03466355800628662 255 0 0
1.01779830455780029 0.506747186183929443 -1.19645655155181885 255 0 0
1.58276951313018799 -0.700197398662567139 -1.51147913932800293 255 0 0
0.922919154167175293 0.145604580640792847 -0.130694359540939331 255 0 0
1.48789060115814209 -1.0613400936126709 -0.445717126131057739 255 0 0
-0.701001763343811035 -0.431913018226623535 0.0393819473683834076 255 0 0
-0.136030450463294983 -1.63885760307312012 -0.275640815496444702 255 0 0
-0.79588085412979126 -0.793055593967437744 1.10514414310455322 255 0 0
-0.230909362435340881 -2 0.790121316909790039 255 0 0
-0.646304786205291748 -0.0287565272301435471 -1.44099891185760498 255 0 0
-0.0813334956765174866 -1.23570108413696289 -1.75602149963378906 255 0 0
-0.741183817386627197 -0.389899194240570068 -0.375236719846725464 255 0 0
-0.176212504506111145 -1.59684383869171143 -0.690259397029876709 255 0 0
0 1
1 2
2 3
3 4
4 5
5 6
6 7
7 8
8 9
9 10
10 11
11 12
12 13
13 14
14 15
15 16
16 17
17 18
18 19
19 20
20 21
21 22
22 23
23 24
24 25
25 26
26 27
27 28
28 29
29 30
30 31
31 32
32 33
33 34
34 35
35 36
36 37
37 38
38 39
39 40
40 41
41 42
42 43
43 44
44 45
45 46
46 47
47 48
48 49
49 50
50 51
51 52
52 53
53 54
54 55
55 56
56 57
57 58
58 59
59 60
60 61
61 62
62 63
