ply
format ascii 1.0
element vertex 100
property float x
property float y
property float z
property uchar red
property uchar green
property uchar blue
element edge 126
property int vertex1
property int vertex2
end_header
0.0000 0.0000 0.0000 0 255 100
0.5000 0.0000 0.0000 0 255 200
-0.2500 0.0000 0.4330 0 255 200
-0.2500 0.0000 -0.4330 0 255 200
0.0000 1.5000 0.0000 0 255 100
0.5000 1.5000 0.0000 0 255 200
-0.2500 1.5000 0.4330 0 255 200
-0.2500 1.5000 -0.4330 0 255 200
0.0000 3.0000 0.0000 0 255 100
0.5000 3.0000 0.0000 0 255 200
-0.2500 3.0000 0.4330 0 255 200
-0.2500 3.0000 -0.4330 0 255 200
0.0000 4.5000 0.0000 0 255 100
0.5000 4.5000 0.0000 0 255 200
-0.2500 4.5000 0.4330 0 255 200
-0.2500 4.5000 -0.4330 0 255 200
0.0000 6.0000 0.0000 0 255 100
0.5000 6.0000 0.0000 0 255 200
-0.2500 6.0000 0.4330 0 255 200
-0.2500 6.0000 -0.4330 0 255 200
0.0000 7.5000 0.0000 0 255 100
0.5000 7.5000 0.0000 0 255 200
-0.2500 7.5000 0.4330 0 255 200
-0.2500 7.5000 -0.4330 0 255 200
0.0000 9.0000 0.0000 0 255 100
0.5000 9.0000 0.0000 0 255 200
-0.2500 9.0000 0.4330 0 255 200
-0.2500 9.0000 -0.4330 0 255 200
0.0000 10.5000 0.0000 0 255 100
0.5000 10.5000 0.0000 0 255 200
-0.2500 10.5000 0.4330 0 255 200
-0.2500 10.5000 -0.4330 0 255 200
0.0000 12.0000 0.0000 0 255 100
0.5000 12.0000 0.0000 0 255 200
-0.2500 12.0000 0.4330 0 255 200
-0.2500 12.0000 -0.4330 0 255 200
0.0000 13.5000 0.0000 0 255 100
0.5000 13.5000 0.0000 0 255 200
-0.2500 13.5000 0.4330 0 255 200
-0.2500 13.5000 -0.4330 0 255 200
3.0000 0.0000 0.0000 255 255 0
2.3577 0.8000 1.8551 255 255 0
0.7057 1.6000 2.9158 255 255 0
-1.2484 2.4000 2.7279 255 255 0
-2.6680 3.2000 1.3718 255 255 0
-2.9450 4.0000 -0.5717 255 255 0
-1.9609 4.8000 -2.2704 255 255 0
-0.1371 5.6000 -2.9969 255 255 0
1.7454 6.4000 -2.4400 255 255 0
2.8805 7.2000 -0.8382 255 255 0
2.7821 8.0000 1.1225 255 255 0
1.4923 8.8000 2.6025 255 255 0
-0.4365 9.6000 2.9681 255 255 0
-2.1784 10.4000 2.0627 255 255 0
-2.9875 11.2000 0.2740 255 255 0
-2.5172 12.0000 -1.6321 255 255 0
-0.9690 12.8000 -2.8392 255 255 0
0.9941 13.6000 -2.8305 255 255 0
2.5316 14.4000 -1.6097 255 255 0
2.9849 15.2000 0.3004 255 255 0
-1.5000 0.0000 2.5981 255 0 0
-2.7854 0.8000 1.1142 255 0 0
-2.8780 1.6000 -0.8467 255 0 0
-1.7382 2.4000 -2.4451 255 0 0
0.1460 3.2000 -2.9964 255 0 0
1.9676 4.0000 -2.2646 255 0 0
2.9467 4.8000 -0.5630 255 0 0
2.6639 5.6000 1.3797 255 0 0
1.2404 6.4000 2.7316 255 0 0
-0.7143 7.2000 2.9137 255 0 0
-2.3631 8.0000 1.8481 255 0 0
-3.0000 8.8000 -0.0089 255 0 0
-2.3522 9.6000 -1.8621 255 0 0
-0.6971 10.4000 -2.9179 255 0 0
1.2565 11.2000 -2.7242 255 0 0
2.6720 12.0000 -1.3639 255 0 0
2.9433 12.8000 0.5804 255 0 0
1.9542 13.6000 2.2762 255 0 0
0.1283 14.4000 2.9973 255 0 0
-1.7526 15.2000 2.4348 255 0 0
-1.5000 0.0000 -2.5981 0 100 255
0.4277 0.8000 -2.9693 0 100 255
2.1723 1.6000 -2.0691 0 100 255
2.9866 2.4000 -0.2828 0 100 255
2.5220 3.2000 1.6246 0 100 255
0.9774 4.0000 2.8363 0 100 255
-0.9858 4.8000 2.8334 0 100 255
-2.5268 5.6000 1.6172 0 100 255
-2.9858 6.4000 -0.2916 0 100 255
-2.1662 7.2000 -2.0755 0 100 255
-0.4190 8.0000 -2.9706 0 100 255
1.5077 8.8000 -2.5936 0 100 255
2.7887 9.6000 -1.1060 0 100 255
2.8755 10.4000 0.8552 0 100 255
1.7310 11.2000 2.4502 0 100 255
-0.1548 12.0000 2.9960 0 100 255
-1.9743 12.8000 2.2588 0 100 255
-2.9483 13.6000 0.5543 0 100 255
-2.6598 14.4000 -1.3875 0 100 255
-1.2323 15.2000 -2.7352 0 100 255
0 1
0 2
0 3
0 1
1 5
1 6
1 7
1 2
2 9
2 10
2 11
2 3
3 13
3 14
3 15
3 4
4 17
4 18
4 19
4 5
5 21
5 22
5 23
5 6
6 25
6 26
6 27
6 7
7 29
7 30
7 31
7 8
8 33
8 34
8 35
8 9
9 37
9 38
9 39
40 0
40 41
41 42
42 1
42 43
43 44
44 2
44 45
45 46
46 3
46 47
47 48
48 4
48 49
49 50
50 5
50 51
51 52
52 6
52 53
53 54
54 7
54 55
55 56
56 8
56 57
57 58
58 9
58 59
60 0
60 61
61 62
62 1
62 63
63 64
64 2
64 65
65 66
66 3
66 67
67 68
68 4
68 69
69 70
70 5
70 71
71 72
72 6
72 73
73 74
74 7
74 75
75 76
76 8
76 77
77 78
78 9
78 79
80 0
80 81
81 82
82 1
82 83
83 84
84 2
84 85
85 86
86 3
86 87
87 88
88 4
88 89
89 90
90 5
90 91
91 92
92 6
92 93
93 94
94 7
94 95
95 96
96 8
96 97
97 98
98 9
98 99
