ply
format ascii 1.0
element vertex 292
property float x
property float y
property float z
property uchar red
property uchar green
property uchar blue
element edge 556
property int vertex1
property int vertex2
end_header
-5.8000 0.0000 0.0000 0 255 255
-6.1000 0.0000 0.1732 0 255 255
-6.1000 0.0000 -0.1732 0 255 255
-5.5000 0.8000 0.0000 0 255 255
-6.2500 0.8000 0.4330 0 255 255
-6.2500 0.8000 -0.4330 0 255 255
-5.2000 1.6000 0.0000 0 255 255
-6.0000 1.6000 0.8000 0 255 255
-6.8000 1.6000 0.0000 0 255 255
-6.0000 1.6000 -0.8000 0 255 255
-4.9000 2.4000 0.0000 0 255 255
-6.0000 2.4000 1.1000 0 255 255
-7.1000 2.4000 0.0000 0 255 255
-6.0000 2.4000 -1.1000 0 255 255
-4.6000 3.2000 0.0000 0 255 255
-5.5674 3.2000 1.3315 0 255 255
-7.1326 3.2000 0.8229 0 255 255
-7.1326 3.2000 -0.8229 0 255 255
-5.5674 3.2000 -1.3315 0 255 255
-4.3000 4.0000 0.0000 0 255 255
-5.4747 4.0000 1.6168 0 255 255
-7.3753 4.0000 0.9992 0 255 255
-7.3753 4.0000 -0.9992 0 255 255
-5.4747 4.0000 -1.6168 0 255 255
-4.0000 4.8000 0.0000 0 255 255
-5.0000 4.8000 1.7321 0 255 255
-7.0000 4.8000 1.7321 0 255 255
-8.0000 4.8000 0.0000 0 255 255
-7.0000 4.8000 -1.7321 0 255 255
-5.0000 4.8000 -1.7321 0 255 255
-3.7000 5.6000 0.0000 0 255 255
-4.8500 5.6000 1.9919 0 255 255
-7.1500 5.6000 1.9919 0 255 255
-8.3000 5.6000 0.0000 0 255 255
-7.1500 5.6000 -1.9919 0 255 255
-4.8500 5.6000 -1.9919 0 255 255
-3.4000 6.4000 0.0000 0 255 255
-4.3789 6.4000 2.0328 0 255 255
-6.5786 6.4000 2.5348 0 255 255
-8.3425 6.4000 1.1281 0 255 255
-8.3425 6.4000 -1.1281 0 255 255
-6.5786 6.4000 -2.5348 0 255 255
-4.3789 6.4000 -2.0328 0 255 255
-3.1000 7.2000 0.0000 0 255 255
-4.1919 7.2000 2.2673 0 255 255
-6.6453 7.2000 2.8273 0 255 255
-8.6128 7.2000 1.2583 0 255 255
-8.6128 7.2000 -1.2583 0 255 255
-6.6453 7.2000 -2.8273 0 255 255
-4.1919 7.2000 -2.2673 0 255 255
-2.8000 8.0000 0.0000 0 255 255
-3.7373 8.0000 2.2627 0 255 255
-6.0000 8.0000 3.2000 0 255 255
-8.2627 8.0000 2.2627 0 255 255
-9.2000 8.0000 0.0000 0 255 255
-8.2627 8.0000 -2.2627 0 255 255
-6.0000 8.0000 -3.2000 0 255 255
-3.7373 8.0000 -2.2627 0 255 255
-2.5000 8.8000 0.0000 0 255 255
-3.5251 8.8000 2.4749 0 255 255
-6.0000 8.8000 3.5000 0 255 255
-8.4749 8.8000 2.4749 0 255 255
-9.5000 8.8000 0.0000 0 255 255
-8.4749 8.8000 -2.4749 0 255 255
-6.0000 8.8000 -3.5000 0 255 255
-3.5251 8.8000 -2.4749 0 255 255
-2.2000 9.6000 0.0000 0 255 255
-3.0890 9.6000 2.4426 0 255 255
-5.3401 9.6000 3.7423 0 255 255
-7.9000 9.6000 3.2909 0 255 255
-9.5708 9.6000 1.2997 0 255 255
-9.5708 9.6000 -1.2997 0 255 255
-7.9000 9.6000 -3.2909 0 255 255
-5.3401 9.6000 -3.7423 0 255 255
-3.0890 9.6000 -2.4426 0 255 255
-1.9000 10.4000 0.0000 0 255 255
-2.8592 10.4000 2.6354 0 255 255
-5.2880 10.4000 4.0377 0 255 255
-8.0500 10.4000 3.5507 0 255 255
-9.8527 10.4000 1.4023 0 255 255
-9.8527 10.4000 -1.4023 0 255 255
-8.0500 10.4000 -3.5507 0 255 255
-5.2880 10.4000 -4.0377 0 255 255
-2.8592 10.4000 -2.6354 0 255 255
-1.6000 11.2000 0.0000 0 255 255
-2.4403 11.2000 2.5863 0 255 255
-4.6403 11.2000 4.1846 0 255 255
-7.3597 11.2000 4.1846 0 255 255
-9.5597 11.2000 2.5863 0 255 255
-10.4000 11.2000 0.0000 0 255 255
-9.5597 11.2000 -2.5863 0 255 255
-7.3597 11.2000 -4.1846 0 255 255
-4.6403 11.2000 -4.1846 0 255 255
-2.4403 11.2000 -2.5863 0 255 255
-1.3000 12.0000 0.0000 0 255 255
-2.1976 12.0000 2.7626 0 255 255
-4.5476 12.0000 4.4700 0 255 255
-7.4524 12.0000 4.4700 0 255 255
-9.8024 12.0000 2.7626 0 255 255
-10.7000 12.0000 0.0000 0 255 255
-9.8024 12.0000 -2.7626 0 255 255
-7.4524 12.0000 -4.4700 0 255 255
-4.5476 12.0000 -4.4700 0 255 255
-2.1976 12.0000 -2.7626 0 255 255
-1.0000 12.8000 0.0000 0 255 255
-1.7937 12.8000 2.7032 0 255 255
-3.9229 12.8000 4.5482 0 255 255
-6.7116 12.8000 4.9491 0 255 255
-9.2743 12.8000 3.7787 0 255 255
-10.7975 12.8000 1.4087 0 255 255
-10.7975 12.8000 -1.4087 0 255 255
-9.2743 12.8000 -3.7787 0 255 255
-6.7116 12.8000 -4.9491 0 255 255
-3.9229 12.8000 -4.5482 0 255 255
-1.7937 12.8000 -2.7032 0 255 255
-0.7000 13.6000 0.0000 0 255 255
-1.5414 13.6000 2.8654 0 255 255
-3.7983 13.6000 4.8210 0 255 255
-6.7543 13.6000 5.2461 0 255 255
-9.4708 13.6000 4.0055 0 255 255
-11.0853 13.6000 1.4932 0 255 255
-11.0853 13.6000 -1.4932 0 255 255
-9.4708 13.6000 -4.0055 0 255 255
-6.7543 13.6000 -5.2461 0 255 255
-3.7983 13.6000 -4.8210 0 255 255
-1.5414 13.6000 -2.8654 0 255 255
-0.4000 14.4000 0.0000 0 255 255
-1.1503 14.4000 2.8000 0 255 255
-3.2000 14.4000 4.8497 0 255 255
-6.0000 14.4000 5.6000 0 255 255
-8.8000 14.4000 4.8497 0 255 255
-10.8497 14.4000 2.8000 0 255 255
-11.6000 14.4000 0.0000 0 255 255
-10.8497 14.4000 -2.8000 0 255 255
-8.8000 14.4000 -4.8497 0 255 255
-6.0000 14.4000 -5.6000 0 255 255
-3.2000 14.4000 -4.8497 0 255 255
-1.1503 14.4000 -2.8000 0 255 255
-0.1000 15.2000 0.0000 0 255 255
-0.8905 15.2000 2.9500 0 255 255
-3.0500 15.2000 5.1095 0 255 255
-6.0000 15.2000 5.9000 0 255 255
-8.9500 15.2000 5.1095 0 255 255
-11.1095 15.2000 2.9500 0 255 255
-11.9000 15.2000 0.0000 0 255 255
-11.1095 15.2000 -2.9500 0 255 255
-8.9500 15.2000 -5.1095 0 255 255
-6.0000 15.2000 -5.9000 0 255 255
-3.0500 15.2000 -5.1095 0 255 255
-0.8905 15.2000 -2.9500 0 255 255
11.0000 0.0000 0.0000 255 0 100
10.0451 0.0000 2.9389 255 0 100
7.5451 0.0000 4.7553 255 0 100
4.4549 0.0000 4.7553 255 0 100
1.9549 0.0000 2.9389 255 0 100
1.0000 0.0000 0.0000 255 0 100
1.9549 0.0000 -2.9389 255 0 100
4.4549 0.0000 -4.7553 255 0 100
7.5451 0.0000 -4.7553 255 0 100
10.0451 0.0000 -2.9389 255 0 100
10.7500 0.8000 0.0000 255 0 100
9.8428 0.8000 2.7920 255 0 100
7.4678 0.8000 4.5175 255 0 100
4.5322 0.8000 4.5175 255 0 100
2.1572 0.8000 2.7920 255 0 100
1.2500 0.8000 0.0000 255 0 100
2.1572 0.8000 -2.7920 255 0 100
4.5322 0.8000 -4.5175 255 0 100
7.4678 0.8000 -4.5175 255 0 100
9.8428 0.8000 -2.7920 255 0 100
10.5000 1.6000 0.0000 255 0 100
9.6406 1.6000 2.6450 255 0 100
7.3906 1.6000 4.2798 255 0 100
4.6094 1.6000 4.2798 255 0 100
2.3594 1.6000 2.6450 255 0 100
1.5000 1.6000 0.0000 255 0 100
2.3594 1.6000 -2.6450 255 0 100
4.6094 1.6000 -4.2798 255 0 100
7.3906 1.6000 -4.2798 255 0 100
9.6406 1.6000 -2.6450 255 0 100
10.2500 2.4000 0.0000 255 0 100
9.2557 2.4000 2.7318 255 0 100
6.7380 2.4000 4.1854 255 0 100
3.8750 2.4000 3.6806 255 0 100
2.0063 2.4000 1.4536 255 0 100
2.0063 2.4000 -1.4536 255 0 100
3.8750 2.4000 -3.6806 255 0 100
6.7380 2.4000 -4.1854 255 0 100
9.2557 2.4000 -2.7318 255 0 100
10.0000 3.2000 0.0000 255 0 100
9.0642 3.2000 2.5712 255 0 100
6.6946 3.2000 3.9392 255 0 100
4.0000 3.2000 3.4641 255 0 100
2.2412 3.2000 1.3681 255 0 100
2.2412 3.2000 -1.3681 255 0 100
4.0000 3.2000 -3.4641 255 0 100
6.6946 3.2000 -3.9392 255 0 100
9.0642 3.2000 -2.5712 255 0 100
9.7500 4.0000 0.0000 255 0 100
8.6517 4.0000 2.6517 255 0 100
6.0000 4.0000 3.7500 255 0 100
3.3483 4.0000 2.6517 255 0 100
2.2500 4.0000 0.0000 255 0 100
3.3483 4.0000 -2.6517 255 0 100
6.0000 4.0000 -3.7500 255 0 100
8.6517 4.0000 -2.6517 255 0 100
9.5000 4.8000 0.0000 255 0 100
8.4749 4.8000 2.4749 255 0 100
6.0000 4.8000 3.5000 255 0 100
3.5251 4.8000 2.4749 255 0 100
2.5000 4.8000 0.0000 255 0 100
3.5251 4.8000 -2.4749 255 0 100
6.0000 4.8000 -3.5000 255 0 100
8.4749 4.8000 -2.4749 255 0 100
9.2500 5.6000 0.0000 255 0 100
8.2981 5.6000 2.2981 255 0 100
6.0000 5.6000 3.2500 255 0 100
3.7019 5.6000 2.2981 255 0 100
2.7500 5.6000 0.0000 255 0 100
3.7019 5.6000 -2.2981 255 0 100
6.0000 5.6000 -3.2500 255 0 100
8.2981 5.6000 -2.2981 255 0 100
9.0000 6.4000 0.0000 255 0 100
7.8705 6.4000 2.3455 255 0 100
5.3324 6.4000 2.9248 255 0 100
3.2971 6.4000 1.3017 255 0 100
3.2971 6.4000 -1.3017 255 0 100
5.3324 6.4000 -2.9248 255 0 100
7.8705 6.4000 -2.3455 255 0 100
8.7500 7.2000 0.0000 255 0 100
7.7146 7.2000 2.1500 255 0 100
5.3881 7.2000 2.6811 255 0 100
3.5223 7.2000 1.1932 255 0 100
3.5223 7.2000 -1.1932 255 0 100
5.3881 7.2000 -2.6811 255 0 100
7.7146 7.2000 -2.1500 255 0 100
8.5000 8.0000 0.0000 255 0 100
7.2500 8.0000 2.1651 255 0 100
4.7500 8.0000 2.1651 255 0 100
3.5000 8.0000 0.0000 255 0 100
4.7500 8.0000 -2.1651 255 0 100
7.2500 8.0000 -2.1651 255 0 100
8.2500 8.8000 0.0000 255 0 100
7.1250 8.8000 1.9486 255 0 100
4.8750 8.8000 1.9486 255 0 100
3.7500 8.8000 0.0000 255 0 100
4.8750 8.8000 -1.9486 255 0 100
7.1250 8.8000 -1.9486 255 0 100
8.0000 9.6000 0.0000 255 0 100
7.0000 9.6000 1.7321 255 0 100
5.0000 9.6000 1.7321 255 0 100
4.0000 9.6000 0.0000 255 0 100
5.0000 9.6000 -1.7321 255 0 100
7.0000 9.6000 -1.7321 255 0 100
7.7500 10.4000 0.0000 255 0 100
6.5408 10.4000 1.6643 255 0 100
4.5842 10.4000 1.0286 255 0 100
4.5842 10.4000 -1.0286 255 0 100
6.5408 10.4000 -1.6643 255 0 100
7.5000 11.2000 0.0000 255 0 100
6.4635 11.2000 1.4266 255 0 100
4.7865 11.2000 0.8817 255 0 100
4.7865 11.2000 -0.8817 255 0 100
6.4635 11.2000 -1.4266 255 0 100
7.2500 12.0000 0.0000 255 0 100
6.0000 12.0000 1.2500 255 0 100
4.7500 12.0000 0.0000 255 0 100
6.0000 12.0000 -1.2500 255 0 100
7.0000 12.8000 0.0000 255 0 100
6.0000 12.8000 1.0000 255 0 100
5.0000 12.8000 0.0000 255 0 100
6.0000 12.8000 -1.0000 255 0 100
6.7500 13.6000 0.0000 255 0 100
6.0000 13.6000 0.7500 255 0 100
5.2500 13.6000 0.0000 255 0 100
6.0000 13.6000 -0.7500 255 0 100
6.5000 14.4000 0.0000 255 0 100
5.7500 14.4000 0.4330 255 0 100
5.7500 14.4000 -0.4330 255 0 100
6.2500 15.2000 0.0000 255 0 100
5.8750 15.2000 0.2165 255 0 100
5.8750 15.2000 -0.2165 255 0 100
-2.0000 5.0000 0.0000 255 255 255
2.0000 5.0000 0.0000 255 0 0
-2.0000 7.0000 0.0000 255 255 255
2.0000 7.0000 0.0000 255 0 0
-2.0000 9.0000 0.0000 255 255 255
2.0000 9.0000 0.0000 255 0 0
-2.0000 11.0000 0.0000 255 255 255
2.0000 11.0000 0.0000 255 0 0
-2.0000 13.0000 0.0000 255 255 255
2.0000 13.0000 0.0000 255 0 0
0 1
1 2
2 0
3 -3
3 4
4 -1
4 5
5 3
5 1
6 -1
6 7
7 1
7 8
8 3
8 9
9 6
9 2
10 2
10 11
11 4
11 12
12 6
12 13
13 10
13 8
14 5
14 15
15 7
15 16
16 9
16 17
17 11
17 18
18 14
18 9
19 9
19 20
20 11
20 21
21 13
21 22
22 15
22 23
23 19
23 17
24 13
24 25
25 15
25 26
26 17
26 27
27 19
27 28
28 21
28 29
29 24
29 18
30 18
30 31
31 20
31 32
32 22
32 33
33 24
33 34
34 26
34 35
35 30
35 28
36 23
36 37
37 25
37 38
38 27
38 39
39 29
39 40
40 31
40 41
41 33
41 42
42 36
42 29
43 29
43 44
44 31
44 45
45 33
45 46
46 35
46 47
47 37
47 48
48 39
48 49
49 43
49 41
50 35
50 51
51 37
51 52
52 39
52 53
53 41
53 54
54 43
54 55
55 45
55 56
56 47
56 57
57 50
57 42
58 42
58 59
59 44
59 60
60 46
60 61
61 48
61 62
62 50
62 63
63 52
63 64
64 54
64 65
65 58
65 56
66 49
66 67
67 51
67 68
68 53
68 69
69 55
69 70
70 57
70 71
71 59
71 72
72 61
72 73
73 63
73 74
74 66
74 57
75 57
75 76
76 59
76 77
77 61
77 78
78 63
78 79
79 65
79 80
80 67
80 81
81 69
81 82
82 71
82 83
83 75
83 73
84 65
84 85
85 67
85 86
86 69
86 87
87 71
87 88
88 73
88 89
89 75
89 90
90 77
90 91
91 79
91 92
92 81
92 93
93 84
93 74
94 74
94 95
95 76
95 96
96 78
96 97
97 80
97 98
98 82
98 99
99 84
99 100
100 86
100 101
101 88
101 102
102 90
102 103
103 94
103 92
104 83
104 105
105 85
105 106
106 87
106 107
107 89
107 108
108 91
108 109
109 93
109 110
110 95
110 111
111 97
111 112
112 99
112 113
113 101
113 114
114 104
114 93
115 93
115 116
116 95
116 117
117 97
117 118
118 99
118 119
119 101
119 120
120 103
120 121
121 105
121 122
122 107
122 123
123 109
123 124
124 111
124 125
125 115
125 113
126 103
126 127
127 105
127 128
128 107
128 129
129 109
129 130
130 111
130 131
131 113
131 132
132 115
132 133
133 117
133 134
134 119
134 135
135 121
135 136
136 123
136 137
137 126
137 114
138 114
138 139
139 116
139 140
140 118
140 141
141 120
141 142
142 122
142 143
143 124
143 144
144 126
144 145
145 128
145 146
146 130
146 147
147 132
147 148
148 134
148 149
149 138
149 136
150 151
151 152
152 153
153 154
154 155
155 156
156 157
157 158
158 159
159 150
160 150
160 161
161 151
161 162
162 152
162 163
163 153
163 164
164 154
164 165
165 155
165 166
166 156
166 167
167 157
167 168
168 158
168 169
169 160
169 159
170 160
170 171
171 161
171 172
172 162
172 173
173 163
173 174
174 164
174 175
175 165
175 176
176 166
176 177
177 167
177 178
178 168
178 179
179 170
179 169
180 171
180 181
181 172
181 182
182 173
182 183
183 174
183 184
184 175
184 185
185 176
185 186
186 177
186 187
187 178
187 188
188 180
188 179
189 180
189 190
190 181
190 191
191 182
191 192
192 183
192 193
193 184
193 194
194 185
194 195
195 186
195 196
196 187
196 197
197 189
197 188
198 190
198 199
199 191
199 200
200 192
200 201
201 193
201 202
202 194
202 203
203 195
203 204
204 196
204 205
205 198
205 197
206 198
206 207
207 199
207 208
208 200
208 209
209 201
209 210
210 202
210 211
211 203
211 212
212 204
212 213
213 206
213 205
214 206
214 215
215 207
215 216
216 208
216 217
217 209
217 218
218 210
218 219
219 211
219 220
220 212
220 221
221 214
221 213
222 215
222 223
223 216
223 224
224 217
224 225
225 218
225 226
226 219
226 227
227 220
227 228
228 222
228 221
229 222
229 230
230 223
230 231
231 224
231 232
232 225
232 233
233 226
233 234
234 227
234 235
235 229
235 228
236 230
236 237
237 231
237 238
238 232
238 239
239 233
239 240
240 234
240 241
241 236
241 235
242 236
242 243
243 237
243 244
244 238
244 245
245 239
245 246
246 240
246 247
247 242
247 241
248 242
248 249
249 243
249 250
250 244
250 251
251 245
251 252
252 246
252 253
253 248
253 247
254 249
254 255
255 250
255 256
256 251
256 257
257 252
257 258
258 254
258 253
259 254
259 260
260 255
260 261
261 256
261 262
262 257
262 263
263 259
263 258
264 260
264 265
265 261
265 266
266 262
266 267
267 264
267 263
268 264
268 269
269 265
269 270
270 266
270 271
271 268
271 267
272 268
272 273
273 269
273 274
274 270
274 275
275 272
275 271
276 273
276 277
277 274
277 278
278 276
278 275
279 276
279 280
280 277
280 281
281 279
281 278
282 283
284 285
286 287
288 289
290 291
