ply
format ascii 1.0
element vertex 50
property float x
property float y
property float z
property uchar red
property uchar green
property uchar blue
element edge 3
property int vertex1
property int vertex2
end_header
-3.6235 -2.0115 2.3716 100 100 255
-0.7868 1.7829 -0.5424 100 100 255
2.9456 2.6426 -2.7919 100 100 255
-1.1018 4.7317 1.2421 100 100 255
0.6242 -0.1098 -0.9102 100 100 255
2.2022 1.7855 -1.2598 100 100 255
-2.9280 -1.8105 -4.9803 100 100 255
-4.8265 4.9212 0.9347 100 100 255
-4.8671 3.6257 -0.7373 100 100 255
0.1913 4.8972 -2.4198 100 100 255
-4.4401 0.8246 0.0174 100 100 255
-1.1213 -0.8963 2.9601 100 100 255
2.9359 1.3585 -1.9217 100 100 255
0.7558 -1.7293 4.4059 100 100 255
0.0337 -3.8877 1.9432 100 100 255
3.3313 -1.6920 1.3224 100 100 255
0.5928 1.6437 4.3044 100 100 255
-4.1221 -3.2306 -1.4009 100 100 255
2.6691 -2.0295 4.0472 100 100 255
2.4566 -0.5586 1.9459 100 100 255
-0.2074 2.8099 0.7208 100 100 255
3.0724 2.3869 1.1423 100 100 255
-4.5870 -3.3397 -0.7216 100 100 255
-0.7039 -2.4050 -1.3209 100 100 255
-3.4165 4.2123 1.3210 100 100 255
0.3668 3.7642 4.6919 100 100 255
-3.2671 -2.9018 3.4281 100 100 255
-4.6511 -1.3507 -3.1489 100 100 255
1.8042 -3.6724 -0.6183 100 100 255
-3.8216 4.8415 2.7062 100 100 255
-1.8483 -0.7937 3.6902 100 100 255
-4.9976 4.8617 -3.8096 100 100 255
-4.0863 -4.5110 0.9931 100 100 255
-0.9012 -4.3763 -3.6187 100 100 255
-0.6484 4.0562 1.0511 100 100 255
2.2636 -1.5075 2.6844 100 100 255
4.5749 0.3584 4.5380 100 100 255
4.5847 -2.3905 2.5911 100 100 255
-1.9544 -0.1165 -1.7312 100 100 255
4.7341 -4.0562 2.6314 100 100 255
-1.6470 -0.9486 -4.7962 100 100 255
-1.4645 0.3610 3.8206 100 100 255
0.1917 1.8993 4.1839 100 100 255
-2.4179 3.4006 3.7754 100 100 255
-0.0607 -3.5636 -1.0893 100 100 255
-1.4061 3.4687 -3.4189 100 100 255
0.6998 -2.1552 -3.1797 100 100 255
0.5199 4.3076 0.3231 100 100 255
4.4428 -1.8897 1.7129 100 100 255
-1.2874 0.3838 -1.2051 100 100 255
36 37
40 41
48 49
