ply
format ascii 1.0
element vertex 12
property float x
property float y
property float z
property uchar red
property uchar green
property uchar blue
element edge 35
property int vertex1
property int vertex2
end_header
2.0000 0.0000 0.0000 255 100 0
0.0000 0.0000 2.0000 255 100 0
-2.0000 0.0000 0.0000 255 100 0
-0.0000 0.0000 -2.0000 255 100 0
2.0000 4.0000 0.0000 255 150 0
0.6180 4.0000 1.9021 255 150 0
-1.6180 4.0000 1.1756 255 150 0
-1.6180 4.0000 -1.1756 255 150 0
0.6180 4.0000 -1.9021 255 150 0
2.0000 8.0000 0.0000 255 200 0
-1.0000 8.0000 1.7321 255 200 0
-1.0000 8.0000 -1.7321 255 200 0
0 4
0 5
0 6
0 7
0 8
1 4
1 5
1 6
1 7
1 8
2 4
2 5
2 6
2 7
2 8
3 4
3 5
3 6
3 7
3 8
4 9
4 10
4 11
5 9
5 10
5 11
6 9
6 10
6 11
7 9
7 10
7 11
8 9
8 10
8 11
